<svg width="15" height="15" viewBox="0 0 15 15" fill="none" xmlns="http://www.w3.org/2000/svg">
<g clip-path="url(#clip0)">
<path d="M8.87424 7.51241L14.715 1.67153C15.0951 1.29161 15.0951 0.67732 14.715 0.297395C14.335 -0.0825301 13.7207 -0.0825301 13.3408 0.297395L7.49993 6.13828L1.65922 0.297395C1.27911 -0.0825301 0.665003 -0.0825301 0.285078 0.297395C-0.0950259 0.67732 -0.0950259 1.29161 0.285078 1.67153L6.12579 7.51241L0.285078 13.3533C-0.0950259 13.7332 -0.0950259 14.3475 0.285078 14.7274C0.474418 14.9169 0.723371 15.0122 0.972147 15.0122C1.22092 15.0122 1.4697 14.9169 1.65922 14.7274L7.49993 8.88655L13.3408 14.7274C13.5303 14.9169 13.7791 15.0122 14.0279 15.0122C14.2767 15.0122 14.5254 14.9169 14.715 14.7274C15.0951 14.3475 15.0951 13.7332 14.715 13.3533L8.87424 7.51241Z" fill="#233C7B"/>
</g>
<defs>
<clipPath id="clip0">
<rect width="15" height="15" fill="white"/>
</clipPath>
</defs>
</svg>
